G04*
G04 #@! TF.GenerationSoftware,Altium Limited,Altium Designer,21.9.1 (22)*
G04*
G04 Layer_Color=32896*
%FSLAX25Y25*%
%MOIN*%
G70*
G04*
G04 #@! TF.SameCoordinates,F23F8E4B-2793-4E4E-BA0B-7ABB5D69BE03*
G04*
G04*
G04 #@! TF.FilePolarity,Positive*
G04*
G01*
G75*
%ADD16C,0.01200*%
%ADD59C,0.02000*%
D16*
X106012Y102775D02*
X106203Y103156D01*
X106774Y103727D01*
X102775D01*
X106774Y106850D02*
X106583Y106279D01*
X106012Y105898D01*
X105060Y105708D01*
X104489D01*
X103536Y105898D01*
X102965Y106279D01*
X102775Y106850D01*
Y107231D01*
X102965Y107802D01*
X103536Y108183D01*
X104489Y108374D01*
X105060D01*
X106012Y108183D01*
X106583Y107802D01*
X106774Y107231D01*
Y106850D01*
Y110411D02*
X106583Y109840D01*
X106012Y109459D01*
X105060Y109269D01*
X104489D01*
X103536Y109459D01*
X102965Y109840D01*
X102775Y110411D01*
Y110792D01*
X102965Y111363D01*
X103536Y111744D01*
X104489Y111935D01*
X105060D01*
X106012Y111744D01*
X106583Y111363D01*
X106774Y110792D01*
Y110411D01*
X105441Y112830D02*
X102775D01*
X104679D02*
X105251Y113401D01*
X105441Y113782D01*
Y114353D01*
X105251Y114734D01*
X104679Y114925D01*
X102775D01*
X104679D02*
X105251Y115496D01*
X105441Y115877D01*
Y116448D01*
X105251Y116829D01*
X104679Y117019D01*
X102775D01*
Y121323D02*
X106774Y119800D01*
X102775Y118276D01*
X104108Y118848D02*
Y120752D01*
X105822Y128255D02*
X106203Y128065D01*
X106583Y127684D01*
X106774Y127303D01*
Y126541D01*
X106583Y126160D01*
X106203Y125779D01*
X105822Y125589D01*
X105251Y125399D01*
X104298D01*
X103727Y125589D01*
X103346Y125779D01*
X102965Y126160D01*
X102775Y126541D01*
Y127303D01*
X102965Y127684D01*
X103346Y128065D01*
X103727Y128255D01*
X106774Y129379D02*
X103917D01*
X103346Y129569D01*
X102965Y129950D01*
X102775Y130521D01*
Y130902D01*
X102965Y131473D01*
X103346Y131854D01*
X103917Y132045D01*
X106774D01*
Y133149D02*
X102775D01*
X106774D02*
Y134863D01*
X106583Y135434D01*
X106393Y135625D01*
X106012Y135815D01*
X105631D01*
X105251Y135625D01*
X105060Y135434D01*
X104870Y134863D01*
Y133149D01*
Y134482D02*
X102775Y135815D01*
X106774Y136710D02*
X102775D01*
X106774D02*
Y138424D01*
X106583Y138996D01*
X106393Y139186D01*
X106012Y139376D01*
X105631D01*
X105251Y139186D01*
X105060Y138996D01*
X104870Y138424D01*
Y136710D01*
Y138043D02*
X102775Y139376D01*
X106774Y142747D02*
Y140271D01*
X102775D01*
Y142747D01*
X104870Y140271D02*
Y141795D01*
X106774Y143414D02*
X102775D01*
X106774D02*
X102775Y146080D01*
X106774D02*
X102775D01*
X106774Y148517D02*
X102775D01*
X106774Y147184D02*
Y149850D01*
Y153469D02*
X102775D01*
Y155754D01*
X106774Y156192D02*
X102775D01*
X106774Y157030D02*
X102775D01*
X106774D02*
X102775Y158553D01*
X106774Y160077D02*
X102775Y158553D01*
X106774Y160077D02*
X102775D01*
X106774Y161219D02*
X102775D01*
X106774Y163390D02*
X102775D01*
X106774Y162057D02*
Y164723D01*
X116984Y100945D02*
X113557D01*
X115271Y99231D02*
Y102659D01*
X117556Y103840D02*
X113557Y105364D01*
X117556Y106887D02*
X113557Y105364D01*
X116984Y110067D02*
X117365Y109686D01*
X117556Y109115D01*
Y108353D01*
X117365Y107782D01*
X116984Y107401D01*
X116604D01*
X116223Y107592D01*
X116032Y107782D01*
X115842Y108163D01*
X115461Y109306D01*
X115271Y109686D01*
X115080Y109877D01*
X114699Y110067D01*
X114128D01*
X113747Y109686D01*
X113557Y109115D01*
Y108353D01*
X113747Y107782D01*
X114128Y107401D01*
X117556Y113438D02*
Y110962D01*
X113557D01*
Y113438D01*
X115652Y110962D02*
Y112486D01*
X117556Y115438D02*
X113557D01*
X117556Y114104D02*
Y116771D01*
Y120389D02*
X113557D01*
X117556D02*
Y122103D01*
X117365Y122674D01*
X117175Y122864D01*
X116794Y123055D01*
X116413D01*
X116032Y122864D01*
X115842Y122674D01*
X115652Y122103D01*
Y120389D01*
Y121722D02*
X113557Y123055D01*
X116223Y126235D02*
X113557D01*
X115652D02*
X116032Y125854D01*
X116223Y125473D01*
Y124902D01*
X116032Y124521D01*
X115652Y124140D01*
X115080Y123950D01*
X114699D01*
X114128Y124140D01*
X113747Y124521D01*
X113557Y124902D01*
Y125473D01*
X113747Y125854D01*
X114128Y126235D01*
X116223Y127302D02*
X113557D01*
X115461D02*
X116032Y127873D01*
X116223Y128254D01*
Y128825D01*
X116032Y129206D01*
X115461Y129396D01*
X113557D01*
X116223Y132729D02*
X113176D01*
X112604Y132539D01*
X112414Y132348D01*
X112224Y131967D01*
Y131396D01*
X112414Y131015D01*
X115652Y132729D02*
X116032Y132348D01*
X116223Y131967D01*
Y131396D01*
X116032Y131015D01*
X115652Y130634D01*
X115080Y130444D01*
X114699D01*
X114128Y130634D01*
X113747Y131015D01*
X113557Y131396D01*
Y131967D01*
X113747Y132348D01*
X114128Y132729D01*
X115080Y133795D02*
Y136081D01*
X115461D01*
X115842Y135890D01*
X116032Y135700D01*
X116223Y135319D01*
Y134748D01*
X116032Y134367D01*
X115652Y133986D01*
X115080Y133795D01*
X114699D01*
X114128Y133986D01*
X113747Y134367D01*
X113557Y134748D01*
Y135319D01*
X113747Y135700D01*
X114128Y136081D01*
X116223Y137128D02*
X116032Y136938D01*
X115842Y137128D01*
X116032Y137319D01*
X116223Y137128D01*
X113937D02*
X113747Y136938D01*
X113557Y137128D01*
X113747Y137319D01*
X113937Y137128D01*
X117556Y142479D02*
X117365Y141908D01*
X116794Y141527D01*
X115842Y141337D01*
X115271D01*
X114318Y141527D01*
X113747Y141908D01*
X113557Y142479D01*
Y142860D01*
X113747Y143431D01*
X114318Y143812D01*
X115271Y144003D01*
X115842D01*
X116794Y143812D01*
X117365Y143431D01*
X117556Y142860D01*
Y142479D01*
Y144898D02*
X113557Y146421D01*
X117556Y147945D02*
X113557Y146421D01*
X117556Y152173D02*
X114318D01*
X113747Y152363D01*
X113557Y152744D01*
Y153125D01*
X116223Y151601D02*
Y152934D01*
Y154648D02*
X116032Y154267D01*
X115652Y153886D01*
X115080Y153696D01*
X114699D01*
X114128Y153886D01*
X113747Y154267D01*
X113557Y154648D01*
Y155219D01*
X113747Y155600D01*
X114128Y155981D01*
X114699Y156172D01*
X115080D01*
X115652Y155981D01*
X116032Y155600D01*
X116223Y155219D01*
Y154648D01*
X116604Y160380D02*
X116794D01*
X117175Y160571D01*
X117365Y160761D01*
X117556Y161142D01*
Y161904D01*
X117365Y162285D01*
X117175Y162475D01*
X116794Y162665D01*
X116413D01*
X116032Y162475D01*
X115461Y162094D01*
X113557Y160190D01*
Y162856D01*
X117556Y166036D02*
Y164132D01*
X115842Y163941D01*
X116032Y164132D01*
X116223Y164703D01*
Y165274D01*
X116032Y165846D01*
X115652Y166227D01*
X115080Y166417D01*
X114699D01*
X114128Y166227D01*
X113747Y165846D01*
X113557Y165274D01*
Y164703D01*
X113747Y164132D01*
X113937Y163941D01*
X114318Y163751D01*
X117556Y167312D02*
X113557Y168836D01*
X117556Y170359D02*
X113557Y168836D01*
X113937Y171064D02*
X113747Y170873D01*
X113557Y171064D01*
X113747Y171254D01*
X113937Y171064D01*
X225178Y140668D02*
Y135669D01*
Y140668D02*
X221845Y135669D01*
Y140668D02*
Y135669D01*
X216656D02*
X218560Y140668D01*
X220465Y135669D01*
X219750Y137336D02*
X217370D01*
X212395Y140668D02*
X215490D01*
Y135669D01*
X212395D01*
X215490Y138288D02*
X213585D01*
X211562Y137812D02*
X207277D01*
X205801Y140668D02*
Y135669D01*
Y140668D02*
X203659D01*
X202945Y140430D01*
X202707Y140192D01*
X202468Y139716D01*
Y139240D01*
X202707Y138764D01*
X202945Y138526D01*
X203659Y138288D01*
X205801D02*
X203659D01*
X202945Y138050D01*
X202707Y137812D01*
X202468Y137336D01*
Y136621D01*
X202707Y136145D01*
X202945Y135907D01*
X203659Y135669D01*
X205801D01*
X197541D02*
X199445Y140668D01*
X201350Y135669D01*
X200636Y137336D02*
X198255D01*
X193042Y139954D02*
X193518Y140430D01*
X194232Y140668D01*
X195184D01*
X195898Y140430D01*
X196375Y139954D01*
Y139478D01*
X196137Y139002D01*
X195898Y138764D01*
X195422Y138526D01*
X193994Y138050D01*
X193518Y137812D01*
X193280Y137574D01*
X193042Y137098D01*
Y136383D01*
X193518Y135907D01*
X194232Y135669D01*
X195184D01*
X195898Y135907D01*
X196375Y136383D01*
X191923Y140668D02*
Y135669D01*
X187305Y139478D02*
X187543Y139954D01*
X188019Y140430D01*
X188495Y140668D01*
X189447D01*
X189924Y140430D01*
X190400Y139954D01*
X190638Y139478D01*
X190876Y138764D01*
Y137574D01*
X190638Y136860D01*
X190400Y136383D01*
X189924Y135907D01*
X189447Y135669D01*
X188495D01*
X188019Y135907D01*
X187543Y136383D01*
X187305Y136860D01*
X185901Y140668D02*
Y135669D01*
Y140668D02*
X183758D01*
X183044Y140430D01*
X182806Y140192D01*
X182568Y139716D01*
Y139240D01*
X182806Y138764D01*
X183044Y138526D01*
X183758Y138288D01*
X185901D02*
X183758D01*
X183044Y138050D01*
X182806Y137812D01*
X182568Y137336D01*
Y136621D01*
X182806Y136145D01*
X183044Y135907D01*
X183758Y135669D01*
X185901D01*
X181449Y140668D02*
Y135669D01*
Y140668D02*
X179307D01*
X178593Y140430D01*
X178355Y140192D01*
X178117Y139716D01*
Y139240D01*
X178355Y138764D01*
X178593Y138526D01*
X179307Y138288D01*
X181449D02*
X179307D01*
X178593Y138050D01*
X178355Y137812D01*
X178117Y137336D01*
Y136621D01*
X178355Y136145D01*
X178593Y135907D01*
X179307Y135669D01*
X181449D01*
X176998Y140668D02*
Y135669D01*
X175950Y137812D02*
X171666D01*
X170190Y140668D02*
Y135669D01*
Y140668D02*
X168047D01*
X167333Y140430D01*
X167095Y140192D01*
X166857Y139716D01*
Y139240D01*
X167095Y138764D01*
X167333Y138526D01*
X168047Y138288D01*
X170190D01*
X168523D02*
X166857Y135669D01*
X165738Y139716D02*
X165262Y139954D01*
X164548Y140668D01*
Y135669D01*
X225178Y129171D02*
X223036D01*
X222321Y129409D01*
X222083Y129647D01*
X221845Y130123D01*
Y130837D01*
X222083Y131313D01*
X222321Y131551D01*
X223036Y131790D01*
X225178D01*
Y126791D01*
X217156Y130599D02*
X217394Y131075D01*
X217870Y131551D01*
X218346Y131790D01*
X219298D01*
X219774Y131551D01*
X220250Y131075D01*
X220489Y130599D01*
X220726Y129885D01*
Y128695D01*
X220489Y127981D01*
X220250Y127505D01*
X219774Y127029D01*
X219298Y126791D01*
X218346D01*
X217870Y127029D01*
X217394Y127505D01*
X217156Y127981D01*
X215751Y131790D02*
Y126791D01*
Y131790D02*
X213609D01*
X212895Y131551D01*
X212657Y131313D01*
X212419Y130837D01*
Y130361D01*
X212657Y129885D01*
X212895Y129647D01*
X213609Y129409D01*
X215751D02*
X213609D01*
X212895Y129171D01*
X212657Y128933D01*
X212419Y128457D01*
Y127743D01*
X212657Y127267D01*
X212895Y127029D01*
X213609Y126791D01*
X215751D01*
X207372Y131790D02*
Y126791D01*
Y131790D02*
X205230D01*
X204516Y131551D01*
X204278Y131313D01*
X204040Y130837D01*
Y130361D01*
X204278Y129885D01*
X204516Y129647D01*
X205230Y129409D01*
X207372D01*
X205706D02*
X204040Y126791D01*
X199826Y131790D02*
X202921D01*
Y126791D01*
X199826D01*
X202921Y129409D02*
X201016D01*
X198993Y131790D02*
X197089Y126791D01*
X195184Y131790D02*
X197089Y126791D01*
X194304Y130123D02*
X194542Y129885D01*
X194304Y129647D01*
X194066Y129885D01*
X194304Y130123D01*
Y127267D02*
X194542Y127029D01*
X194304Y126791D01*
X194066Y127029D01*
X194304Y127267D01*
X187615Y131790D02*
X188329Y131551D01*
X188805Y130837D01*
X189043Y129647D01*
Y128933D01*
X188805Y127743D01*
X188329Y127029D01*
X187615Y126791D01*
X187138D01*
X186424Y127029D01*
X185948Y127743D01*
X185710Y128933D01*
Y129647D01*
X185948Y130837D01*
X186424Y131551D01*
X187138Y131790D01*
X187615D01*
X180783Y126791D02*
X182687Y131790D01*
X184591Y126791D01*
X183877Y128457D02*
X181497D01*
X224784Y159689D02*
Y153690D01*
Y159689D02*
X220785Y153690D01*
Y159689D02*
Y153690D01*
X219128Y155975D02*
X215701D01*
Y156547D01*
X215986Y157118D01*
X216272Y157404D01*
X216843Y157689D01*
X217700D01*
X218271Y157404D01*
X218843Y156832D01*
X219128Y155975D01*
Y155404D01*
X218843Y154547D01*
X218271Y153976D01*
X217700Y153690D01*
X216843D01*
X216272Y153976D01*
X215701Y154547D01*
X214415Y157689D02*
X213272Y153690D01*
X212130Y157689D02*
X213272Y153690D01*
X212130Y157689D02*
X210987Y153690D01*
X209845Y157689D02*
X210987Y153690D01*
X203874D02*
X206160Y159689D01*
X208445Y153690D01*
X207588Y155690D02*
X204731D01*
X198761Y159689D02*
X202475D01*
Y153690D01*
X198761D01*
X202475Y156832D02*
X200189D01*
X197476Y154261D02*
X197761Y153976D01*
X197476Y153690D01*
X197190Y153976D01*
X197476Y154261D01*
X192448Y156832D02*
X193020Y157404D01*
X193591Y157689D01*
X194448D01*
X195019Y157404D01*
X195590Y156832D01*
X195876Y155975D01*
Y155404D01*
X195590Y154547D01*
X195019Y153976D01*
X194448Y153690D01*
X193591D01*
X193020Y153976D01*
X192448Y154547D01*
X189735Y157689D02*
X190306Y157404D01*
X190877Y156832D01*
X191163Y155975D01*
Y155404D01*
X190877Y154547D01*
X190306Y153976D01*
X189735Y153690D01*
X188878D01*
X188306Y153976D01*
X187735Y154547D01*
X187449Y155404D01*
Y155975D01*
X187735Y156832D01*
X188306Y157404D01*
X188878Y157689D01*
X189735D01*
X186135D02*
Y153690D01*
Y156547D02*
X185278Y157404D01*
X184707Y157689D01*
X183850D01*
X183279Y157404D01*
X182993Y156547D01*
Y153690D01*
Y156547D02*
X182136Y157404D01*
X181565Y157689D01*
X180708D01*
X180137Y157404D01*
X179851Y156547D01*
Y153690D01*
X224784Y149325D02*
Y143326D01*
Y149325D02*
X222213D01*
X221356Y149039D01*
X221071Y148753D01*
X220785Y148182D01*
Y147611D01*
X221071Y147039D01*
X221356Y146754D01*
X222213Y146468D01*
X224784D02*
X222213D01*
X221356Y146183D01*
X221071Y145897D01*
X220785Y145326D01*
Y144469D01*
X221071Y143897D01*
X221356Y143612D01*
X222213Y143326D01*
X224784D01*
X216015Y147325D02*
Y143326D01*
Y146468D02*
X216586Y147039D01*
X217157Y147325D01*
X218014D01*
X218586Y147039D01*
X219157Y146468D01*
X219443Y145611D01*
Y145040D01*
X219157Y144183D01*
X218586Y143612D01*
X218014Y143326D01*
X217157D01*
X216586Y143612D01*
X216015Y144183D01*
X211273Y146468D02*
X211559Y147039D01*
X212416Y147325D01*
X213272D01*
X214129Y147039D01*
X214415Y146468D01*
X214129Y145897D01*
X213558Y145611D01*
X212130Y145326D01*
X211559Y145040D01*
X211273Y144469D01*
Y144183D01*
X211559Y143612D01*
X212416Y143326D01*
X213272D01*
X214129Y143612D01*
X214415Y144183D01*
X209445Y149325D02*
X209159Y149039D01*
X208873Y149325D01*
X209159Y149610D01*
X209445Y149325D01*
X209159Y147325D02*
Y143326D01*
X204389Y146468D02*
X204960Y147039D01*
X205531Y147325D01*
X206388D01*
X206960Y147039D01*
X207531Y146468D01*
X207817Y145611D01*
Y145040D01*
X207531Y144183D01*
X206960Y143612D01*
X206388Y143326D01*
X205531D01*
X204960Y143612D01*
X204389Y144183D01*
X203103Y149325D02*
Y143326D01*
Y149325D02*
X200532D01*
X199675Y149039D01*
X199390Y148753D01*
X199104Y148182D01*
Y147611D01*
X199390Y147039D01*
X199675Y146754D01*
X200532Y146468D01*
X203103D02*
X200532D01*
X199675Y146183D01*
X199390Y145897D01*
X199104Y145326D01*
Y144469D01*
X199390Y143897D01*
X199675Y143612D01*
X200532Y143326D01*
X203103D01*
X197761Y149325D02*
Y143326D01*
Y149325D02*
X195191D01*
X194334Y149039D01*
X194048Y148753D01*
X193762Y148182D01*
Y147611D01*
X194048Y147039D01*
X194334Y146754D01*
X195191Y146468D01*
X197761D02*
X195191D01*
X194334Y146183D01*
X194048Y145897D01*
X193762Y145326D01*
Y144469D01*
X194048Y143897D01*
X194334Y143612D01*
X195191Y143326D01*
X197761D01*
X192420Y149325D02*
Y143326D01*
X186450Y149325D02*
Y143326D01*
Y149325D02*
X183879D01*
X183022Y149039D01*
X182736Y148753D01*
X182450Y148182D01*
Y147611D01*
X182736Y147039D01*
X183022Y146754D01*
X183879Y146468D01*
X186450D01*
X184450D02*
X182450Y143326D01*
X181108Y145611D02*
X177680D01*
Y146183D01*
X177966Y146754D01*
X178251Y147039D01*
X178823Y147325D01*
X179680D01*
X180251Y147039D01*
X180822Y146468D01*
X181108Y145611D01*
Y145040D01*
X180822Y144183D01*
X180251Y143612D01*
X179680Y143326D01*
X178823D01*
X178251Y143612D01*
X177680Y144183D01*
X176395Y147325D02*
X174681Y143326D01*
X172967Y147325D02*
X174681Y143326D01*
X171996Y148182D02*
X171424Y148468D01*
X170567Y149325D01*
Y143326D01*
X148506Y121660D02*
Y123754D01*
X146983Y122612D01*
Y123183D01*
X146792Y123564D01*
X146602Y123754D01*
X146031Y123945D01*
X145650D01*
X145078Y123754D01*
X144697Y123373D01*
X144507Y122802D01*
Y122231D01*
X144697Y121660D01*
X144888Y121469D01*
X145269Y121279D01*
X144888Y125030D02*
X144697Y124840D01*
X144507Y125030D01*
X144697Y125221D01*
X144888Y125030D01*
X148506Y126478D02*
Y128572D01*
X146983Y127430D01*
Y128001D01*
X146792Y128382D01*
X146602Y128572D01*
X146031Y128763D01*
X145650D01*
X145078Y128572D01*
X144697Y128191D01*
X144507Y127620D01*
Y127049D01*
X144697Y126478D01*
X144888Y126287D01*
X145269Y126097D01*
X148506Y130800D02*
X148316Y130420D01*
X147935Y130039D01*
X147554Y129848D01*
X146983Y129658D01*
X146031D01*
X145459Y129848D01*
X145078Y130039D01*
X144697Y130420D01*
X144507Y130800D01*
Y131562D01*
X144697Y131943D01*
X145078Y132324D01*
X145459Y132514D01*
X146031Y132705D01*
X146983D01*
X147554Y132514D01*
X147935Y132324D01*
X148316Y131943D01*
X148506Y131562D01*
Y130800D01*
X147554Y136495D02*
X147935Y136304D01*
X148316Y135923D01*
X148506Y135542D01*
Y134781D01*
X148316Y134400D01*
X147935Y134019D01*
X147554Y133828D01*
X146983Y133638D01*
X146031D01*
X145459Y133828D01*
X145078Y134019D01*
X144697Y134400D01*
X144507Y134781D01*
Y135542D01*
X144697Y135923D01*
X145078Y136304D01*
X145459Y136495D01*
X138486Y121418D02*
X135058D01*
X136772Y119704D02*
Y123132D01*
X139057Y124312D02*
X135058Y125836D01*
X139057Y127359D02*
X135058Y125836D01*
X138486Y130540D02*
X138867Y130159D01*
X139057Y129587D01*
Y128826D01*
X138867Y128254D01*
X138486Y127874D01*
X138105D01*
X137724Y128064D01*
X137534Y128254D01*
X137344Y128635D01*
X136963Y129778D01*
X136772Y130159D01*
X136582Y130349D01*
X136201Y130540D01*
X135630D01*
X135249Y130159D01*
X135058Y129587D01*
Y128826D01*
X135249Y128254D01*
X135630Y127874D01*
X139057Y133910D02*
Y131435D01*
X135058D01*
Y133910D01*
X137153Y131435D02*
Y132958D01*
X139057Y135910D02*
X135058D01*
X139057Y134577D02*
Y137243D01*
X125900Y121773D02*
X126281Y121583D01*
X126662Y121202D01*
X126853Y120821D01*
Y120059D01*
X126662Y119678D01*
X126281Y119297D01*
X125900Y119107D01*
X125329Y118916D01*
X124377D01*
X123806Y119107D01*
X123425Y119297D01*
X123044Y119678D01*
X122854Y120059D01*
Y120821D01*
X123044Y121202D01*
X123425Y121583D01*
X123806Y121773D01*
X124377D01*
Y120821D02*
Y121773D01*
X126853Y122687D02*
X122854D01*
X126853D02*
X122854Y125353D01*
X126853D02*
X122854D01*
X126853Y126458D02*
X122854D01*
X126853D02*
Y127791D01*
X126662Y128362D01*
X126281Y128743D01*
X125900Y128933D01*
X125329Y129124D01*
X124377D01*
X123806Y128933D01*
X123425Y128743D01*
X123044Y128362D01*
X122854Y127791D01*
Y126458D01*
X159010Y121672D02*
Y123386D01*
X159200Y123958D01*
X159391Y124148D01*
X159772Y124338D01*
X160343D01*
X160724Y124148D01*
X160914Y123958D01*
X161105Y123386D01*
Y121672D01*
X157106D01*
X161105Y125234D02*
X158248D01*
X157677Y125424D01*
X157296Y125805D01*
X157106Y126376D01*
Y126757D01*
X157296Y127328D01*
X157677Y127709D01*
X158248Y127900D01*
X161105D01*
Y129004D02*
X157106D01*
Y131289D01*
X160533Y134394D02*
X160914Y134013D01*
X161105Y133441D01*
Y132680D01*
X160914Y132108D01*
X160533Y131727D01*
X160152D01*
X159772Y131918D01*
X159581Y132108D01*
X159391Y132489D01*
X159010Y133632D01*
X158819Y134013D01*
X158629Y134203D01*
X158248Y134394D01*
X157677D01*
X157296Y134013D01*
X157106Y133441D01*
Y132680D01*
X157296Y132108D01*
X157677Y131727D01*
X161105Y137764D02*
Y135289D01*
X157106D01*
Y137764D01*
X159200Y135289D02*
Y136812D01*
X238502Y158642D02*
X242501D01*
X239073Y155139D02*
X238692Y155519D01*
X238502Y156091D01*
Y156852D01*
X238692Y157424D01*
X239073Y157805D01*
X239454D01*
X239835Y157614D01*
X240025Y157424D01*
X240216Y157043D01*
X240596Y155900D01*
X240787Y155519D01*
X240977Y155329D01*
X241358Y155139D01*
X241930D01*
X242310Y155519D01*
X242501Y156091D01*
Y156852D01*
X242310Y157424D01*
X241930Y157805D01*
X238502Y153101D02*
X238692Y153482D01*
X239073Y153863D01*
X239454Y154053D01*
X240025Y154244D01*
X240977D01*
X241549Y154053D01*
X241930Y153863D01*
X242310Y153482D01*
X242501Y153101D01*
Y152339D01*
X242310Y151958D01*
X241930Y151577D01*
X241549Y151387D01*
X240977Y151197D01*
X240025D01*
X239454Y151387D01*
X239073Y151577D01*
X238692Y151958D01*
X238502Y152339D01*
Y153101D01*
Y150263D02*
X242501D01*
Y147978D01*
Y144493D02*
X238502Y146017D01*
X242501Y147540D01*
X241168Y146969D02*
Y145064D01*
X238502Y142227D02*
X242501D01*
X238502Y143560D02*
Y140894D01*
Y137942D02*
Y140418D01*
X242501D01*
Y137942D01*
X240406Y140418D02*
Y138894D01*
X238502Y137276D02*
X242501D01*
X238502D02*
Y135943D01*
X238692Y135371D01*
X239073Y134991D01*
X239454Y134800D01*
X240025Y134610D01*
X240977D01*
X241549Y134800D01*
X241930Y134991D01*
X242310Y135371D01*
X242501Y135943D01*
Y137276D01*
D59*
X124803Y140551D02*
Y142520D01*
X137402Y138189D02*
Y142126D01*
X146457Y138583D02*
Y142126D01*
X159449Y139764D02*
Y142126D01*
X135039Y144882D02*
Y153150D01*
Y144882D02*
X140157D01*
X135039Y153150D02*
X140157D01*
X130315Y144882D02*
Y153150D01*
X120079D02*
X130315D01*
X120079D02*
Y158661D01*
X119685Y140157D02*
Y144882D01*
X130315D01*
X140157D02*
Y153150D01*
X150394Y144882D02*
Y153150D01*
X144882Y144882D02*
X150394D01*
X144882D02*
Y153150D01*
X150394D01*
X159055Y144882D02*
X164173Y149213D01*
X155118Y144882D02*
X159055D01*
X155118D02*
Y153150D01*
X159449D01*
X164173Y149213D01*
X232283Y134252D02*
Y159843D01*
X234646Y134252D02*
Y159843D01*
M02*
