M48
;Layer_Color=9474304
;FILE_FORMAT=2:5
INCH,LZ
;TYPE=PLATED
T1F00S00C0.01200
T2F00S00C0.01500
T3F00S00C0.02800
T4F00S00C0.05000
T5F00S00C0.12205
;TYPE=NON_PLATED
T6F00S00C0.06693
%
T01
X0135919Y0100486
X0133512Y0106299
X0135919Y0112112
X0141732Y011452
X0147545Y0112112
X0149953Y0106299
X0147545Y0100486
X0141732Y0098079
X0230408Y0116234
X0228Y0122047
X0230408Y012786
X0236221Y0130268
X0242033Y012786
X0244441Y0122047
X0242033Y0116234
X0236221Y0113827
X0147545Y0159541
X0141732Y0157134
X0135919Y0159541
X0133512Y0165354
X0135919Y0171167
X0141732Y0173575
X0147545Y0171167
X0149953Y0165354
T02
X0207087Y0135433
Y0141339
Y0148425
X0223622Y0144095
T03
X011063Y0111024
X0109843Y0132283
X0254724Y0126772
X0264961
X0256299Y015315
X0274803
T04
X0279528Y0138583
T05
X0141732Y0106299
X0236221Y0122047
X0141732Y0165354
T06
X0125Y0135827
X0152559
M30
