G04*
G04 #@! TF.GenerationSoftware,Altium Limited,Altium Designer,21.9.1 (22)*
G04*
G04 Layer_Color=65535*
%FSLAX25Y25*%
%MOIN*%
G70*
G04*
G04 #@! TF.SameCoordinates,F23F8E4B-2793-4E4E-BA0B-7ABB5D69BE03*
G04*
G04*
G04 #@! TF.FilePolarity,Positive*
G04*
G01*
G75*
%ADD10C,0.01575*%
%ADD11C,0.00787*%
%ADD12C,0.00984*%
%ADD13C,0.00394*%
%ADD14C,0.00500*%
%ADD15C,0.01000*%
%ADD16C,0.01200*%
%ADD17R,0.02500X0.11654*%
D10*
X103150Y121063D02*
G03*
X103150Y121063I-787J0D01*
G01*
X227959Y147638D02*
G03*
X227959Y147638I-707J0D01*
G01*
D11*
X265039Y141732D02*
G03*
X265039Y141732I-197J0D01*
G01*
X204678Y120472D02*
G03*
X203890Y121260I-787J0D01*
G01*
Y113386D02*
G03*
X204678Y114173I0J787D01*
G01*
X196016D02*
G03*
X196803Y113386I787J0D01*
G01*
X197197Y121260D02*
G03*
X196016Y120079I0J-1181D01*
G01*
X187008Y156299D02*
G03*
X186221Y157087I-787J0D01*
G01*
Y149213D02*
G03*
X187008Y150000I0J787D01*
G01*
X178347D02*
G03*
X179134Y149213I787J0D01*
G01*
X179528Y157087D02*
G03*
X178347Y155905I0J-1181D01*
G01*
X210236Y147244D02*
Y151181D01*
X213287D01*
X222047Y147244D02*
Y151181D01*
X218996D02*
X222047D01*
X197197Y121260D02*
X203890D01*
X204678Y114173D02*
Y120472D01*
X196803Y113386D02*
X203890D01*
X196016Y114173D02*
Y120079D01*
X179528Y157087D02*
X186221D01*
X187008Y150000D02*
Y156299D01*
X179134Y149213D02*
X186221D01*
X178347Y150000D02*
Y155905D01*
D12*
X209449Y143307D02*
G03*
X209449Y143307I-492J0D01*
G01*
D13*
X216535Y125591D02*
X223622D01*
X216535Y138189D02*
X223622D01*
X216535Y125591D02*
Y138189D01*
X223622Y125591D02*
Y138189D01*
X249843Y108071D02*
X269843D01*
X249843D02*
Y118071D01*
X269843D01*
Y108071D02*
Y118071D01*
X192913Y141929D02*
Y148622D01*
X205512Y141929D02*
Y148622D01*
X192913D02*
X205512D01*
X192913Y141929D02*
X205512D01*
X192913Y134055D02*
Y140748D01*
X205512Y134055D02*
Y140748D01*
X192913D02*
X205512D01*
X192913Y134055D02*
X205512D01*
X189094Y150244D02*
Y155756D01*
X200905Y150244D02*
Y155756D01*
X189094D02*
X200905D01*
X189094Y150244D02*
X200905D01*
X177559Y141339D02*
Y146850D01*
X187795Y141339D02*
Y146850D01*
X177559Y141339D02*
X187795D01*
X177559Y146850D02*
X187795D01*
X170079Y134252D02*
Y139764D01*
X181890Y134252D02*
Y139764D01*
X170079D02*
X181890D01*
X170079Y134252D02*
X181890D01*
X172835Y121850D02*
Y123228D01*
Y111417D02*
Y112795D01*
Y123228D02*
X190945D01*
X172835Y111417D02*
X190945D01*
X194488Y124606D02*
Y131299D01*
X207087Y124606D02*
Y131299D01*
X194488D02*
X207087D01*
X194488Y124606D02*
X207087D01*
X215748Y125591D02*
Y138189D01*
X208661Y125591D02*
Y138189D01*
X215748D01*
X208661Y125591D02*
X215748D01*
D14*
X168307Y124016D02*
Y147638D01*
X133661D02*
X168307D01*
X164567Y124016D02*
X168307D01*
X125787D02*
X150197D01*
X101378Y125984D02*
X104528D01*
X101378D02*
Y145669D01*
X107283D01*
Y128150D02*
Y145669D01*
Y147638D01*
X121850D01*
D15*
X228752Y157638D02*
X240252D01*
Y137638D02*
Y157638D01*
X228752Y137638D02*
X240252D01*
X97299Y155998D02*
X95299D01*
X96299D01*
Y151000D01*
X95299Y150000D01*
X94300D01*
X93300Y151000D01*
X164557Y156149D02*
X163557Y157149D01*
X161558D01*
X160558Y156149D01*
Y155149D01*
X161558Y154150D01*
X163557D01*
X164557Y153150D01*
Y152150D01*
X163557Y151151D01*
X161558D01*
X160558Y152150D01*
X170555Y157149D02*
X168555D01*
X169555D01*
Y152150D01*
X168555Y151151D01*
X167556D01*
X166556Y152150D01*
X176553Y151151D02*
X172554D01*
X176553Y155149D01*
Y156149D01*
X175553Y157149D01*
X173554D01*
X172554Y156149D01*
X209993Y115779D02*
X208993Y116779D01*
X206994D01*
X205994Y115779D01*
Y114779D01*
X206994Y113779D01*
X208993D01*
X209993Y112780D01*
Y111780D01*
X208993Y110781D01*
X206994D01*
X205994Y111780D01*
X215991Y116779D02*
X213992D01*
X214991D01*
Y111780D01*
X213992Y110781D01*
X212992D01*
X211993Y111780D01*
X217990Y110781D02*
X219990D01*
X218990D01*
Y116779D01*
X217990Y115779D01*
D16*
X272885Y127120D02*
Y121121D01*
X270885Y127120D02*
X274884D01*
X279883Y125691D02*
X279597Y126263D01*
X279026Y126834D01*
X278455Y127120D01*
X277312D01*
X276741Y126834D01*
X276170Y126263D01*
X275884Y125691D01*
X275598Y124835D01*
Y123406D01*
X275884Y122549D01*
X276170Y121978D01*
X276741Y121407D01*
X277312Y121121D01*
X278455D01*
X279026Y121407D01*
X279597Y121978D01*
X279883Y122549D01*
Y123406D01*
X278455D02*
X279883D01*
X283254Y127120D02*
Y121121D01*
X281254Y127120D02*
X285253D01*
X275170Y115613D02*
X274884Y116184D01*
X274313Y116756D01*
X273742Y117041D01*
X272599D01*
X272028Y116756D01*
X271456Y116184D01*
X271171Y115613D01*
X270885Y114756D01*
Y113328D01*
X271171Y112471D01*
X271456Y111899D01*
X272028Y111328D01*
X272599Y111042D01*
X273742D01*
X274313Y111328D01*
X274884Y111899D01*
X275170Y112471D01*
Y113328D01*
X273742D02*
X275170D01*
X276541Y117041D02*
Y111042D01*
Y117041D02*
X280540Y111042D01*
Y117041D02*
Y111042D01*
X282197Y117041D02*
Y111042D01*
Y117041D02*
X284196D01*
X285053Y116756D01*
X285625Y116184D01*
X285910Y115613D01*
X286196Y114756D01*
Y113328D01*
X285910Y112471D01*
X285625Y111899D01*
X285053Y111328D01*
X284196Y111042D01*
X282197D01*
X103956Y156805D02*
Y150806D01*
Y156805D02*
X106527D01*
X107384Y156519D01*
X107669Y156234D01*
X107955Y155662D01*
Y155091D01*
X107669Y154520D01*
X107384Y154234D01*
X106527Y153948D01*
X103956D01*
X105956D02*
X107955Y150806D01*
X109298Y153092D02*
X112725D01*
Y153663D01*
X112440Y154234D01*
X112154Y154520D01*
X111583Y154805D01*
X110726D01*
X110155Y154520D01*
X109583Y153948D01*
X109298Y153092D01*
Y152520D01*
X109583Y151663D01*
X110155Y151092D01*
X110726Y150806D01*
X111583D01*
X112154Y151092D01*
X112725Y151663D01*
X114011Y154805D02*
X115725Y150806D01*
X117439Y154805D02*
X115725Y150806D01*
X118410Y155662D02*
X118981Y155948D01*
X119838Y156805D01*
Y150806D01*
X103956Y175309D02*
Y169310D01*
Y175309D02*
X107955Y169310D01*
Y175309D02*
Y169310D01*
X109612Y171596D02*
X113040D01*
Y172167D01*
X112754Y172738D01*
X112468Y173024D01*
X111897Y173309D01*
X111040D01*
X110469Y173024D01*
X109897Y172452D01*
X109612Y171596D01*
Y171024D01*
X109897Y170167D01*
X110469Y169596D01*
X111040Y169310D01*
X111897D01*
X112468Y169596D01*
X113040Y170167D01*
X114325Y173309D02*
X115468Y169310D01*
X116610Y173309D02*
X115468Y169310D01*
X116610Y173309D02*
X117753Y169310D01*
X118896Y173309D02*
X117753Y169310D01*
X124866D02*
X122581Y175309D01*
X120295Y169310D01*
X121152Y171310D02*
X124009D01*
X129979Y175309D02*
X126265D01*
Y169310D01*
X129979D01*
X126265Y172452D02*
X128551D01*
X106318Y165466D02*
Y159468D01*
Y165466D02*
X108889D01*
X109746Y165181D01*
X110032Y164895D01*
X110317Y164324D01*
Y163752D01*
X110032Y163181D01*
X109746Y162896D01*
X108889Y162610D01*
X106318D02*
X108889D01*
X109746Y162324D01*
X110032Y162039D01*
X110317Y161467D01*
Y160610D01*
X110032Y160039D01*
X109746Y159753D01*
X108889Y159468D01*
X106318D01*
X111660Y165466D02*
Y159468D01*
Y165466D02*
X114231D01*
X115088Y165181D01*
X115373Y164895D01*
X115659Y164324D01*
Y163752D01*
X115373Y163181D01*
X115088Y162896D01*
X114231Y162610D01*
X111660D02*
X114231D01*
X115088Y162324D01*
X115373Y162039D01*
X115659Y161467D01*
Y160610D01*
X115373Y160039D01*
X115088Y159753D01*
X114231Y159468D01*
X111660D01*
X117001Y165466D02*
Y159468D01*
X219412Y123223D02*
X218746Y123889D01*
X217413D01*
X216746Y123223D01*
Y120557D01*
X217413Y119890D01*
X218746D01*
X219412Y120557D01*
X223411Y119890D02*
X220745D01*
X223411Y122556D01*
Y123223D01*
X222744Y123889D01*
X221412D01*
X220745Y123223D01*
X224893Y136251D02*
X227559D01*
X226226D01*
Y132253D01*
X228892D02*
X230225D01*
X229558D01*
Y136251D01*
X228892Y135585D01*
X191775Y141943D02*
X187776D01*
Y143943D01*
X188443Y144609D01*
X189776D01*
X190442Y143943D01*
Y141943D01*
Y143276D02*
X191775Y144609D01*
X187776Y148608D02*
Y145942D01*
X189776D01*
X189109Y147275D01*
Y147941D01*
X189776Y148608D01*
X191109D01*
X191775Y147941D01*
Y146608D01*
X191109Y145942D01*
X185250Y135009D02*
Y139007D01*
X187250D01*
X187916Y138341D01*
Y137008D01*
X187250Y136341D01*
X185250D01*
X186583D02*
X187916Y135009D01*
X191249D02*
Y139007D01*
X189249Y137008D01*
X191915D01*
X172258Y128709D02*
Y132708D01*
X174258D01*
X174924Y132042D01*
Y130709D01*
X174258Y130042D01*
X172258D01*
X173591D02*
X174924Y128709D01*
X176257Y132042D02*
X176924Y132708D01*
X178256D01*
X178923Y132042D01*
Y131375D01*
X178256Y130709D01*
X177590D01*
X178256D01*
X178923Y130042D01*
Y129376D01*
X178256Y128709D01*
X176924D01*
X176257Y129376D01*
X202168Y151501D02*
Y155499D01*
X204167D01*
X204834Y154833D01*
Y153500D01*
X204167Y152833D01*
X202168D01*
X203501D02*
X204834Y151501D01*
X208832D02*
X206167D01*
X208832Y154166D01*
Y154833D01*
X208166Y155499D01*
X206833D01*
X206167Y154833D01*
X187885Y126347D02*
Y130346D01*
X189885D01*
X190551Y129679D01*
Y128347D01*
X189885Y127680D01*
X187885D01*
X189218D02*
X190551Y126347D01*
X191884D02*
X193217D01*
X192551D01*
Y130346D01*
X191884Y129679D01*
X223622Y153785D02*
Y156451D01*
X222956Y157117D01*
X221623D01*
X220956Y156451D01*
Y153785D01*
X221623Y153119D01*
X222956D01*
X222289Y154452D02*
X223622Y153119D01*
X222956D02*
X223622Y153785D01*
X224955Y153119D02*
X226288D01*
X225621D01*
Y157117D01*
X224955Y156451D01*
X164930Y114657D02*
X168929D01*
Y116656D01*
X168262Y117323D01*
X165596D01*
X164930Y116656D01*
Y114657D01*
X168929Y118656D02*
Y119989D01*
Y119322D01*
X164930D01*
X165596Y118656D01*
X172562Y145427D02*
X171896Y146094D01*
X170563D01*
X169896Y145427D01*
Y142762D01*
X170563Y142095D01*
X171896D01*
X172562Y142762D01*
X173895Y145427D02*
X174561Y146094D01*
X175894D01*
X176561Y145427D01*
Y144761D01*
X175894Y144095D01*
X175228D01*
X175894D01*
X176561Y143428D01*
Y142762D01*
X175894Y142095D01*
X174561D01*
X173895Y142762D01*
X212205Y123223D02*
X211538Y123889D01*
X210205D01*
X209539Y123223D01*
Y120557D01*
X210205Y119890D01*
X211538D01*
X212205Y120557D01*
X213538Y119890D02*
X214871D01*
X214204D01*
Y123889D01*
X213538Y123223D01*
D17*
X184640Y117402D02*
D03*
M02*
