G04*
G04 #@! TF.GenerationSoftware,Altium Limited,Altium Designer,21.9.1 (22)*
G04*
G04 Layer_Color=8388736*
%FSLAX25Y25*%
%MOIN*%
G70*
G04*
G04 #@! TF.SameCoordinates,F23F8E4B-2793-4E4E-BA0B-7ABB5D69BE03*
G04*
G04*
G04 #@! TF.FilePolarity,Negative*
G04*
G01*
G75*
%ADD30R,0.07087X0.06299*%
G04:AMPARAMS|DCode=31|XSize=63.12mil|YSize=47.37mil|CornerRadius=8.92mil|HoleSize=0mil|Usage=FLASHONLY|Rotation=180.000|XOffset=0mil|YOffset=0mil|HoleType=Round|Shape=RoundedRectangle|*
%AMROUNDEDRECTD31*
21,1,0.06312,0.02953,0,0,180.0*
21,1,0.04528,0.04737,0,0,180.0*
1,1,0.01784,-0.02264,0.01476*
1,1,0.01784,0.02264,0.01476*
1,1,0.01784,0.02264,-0.01476*
1,1,0.01784,-0.02264,-0.01476*
%
%ADD31ROUNDEDRECTD31*%
%ADD32R,0.09461X0.11824*%
G04:AMPARAMS|DCode=33|XSize=118.24mil|YSize=110.36mil|CornerRadius=29.59mil|HoleSize=0mil|Usage=FLASHONLY|Rotation=180.000|XOffset=0mil|YOffset=0mil|HoleType=Round|Shape=RoundedRectangle|*
%AMROUNDEDRECTD33*
21,1,0.11824,0.05118,0,0,180.0*
21,1,0.05906,0.11036,0,0,180.0*
1,1,0.05918,-0.02953,0.02559*
1,1,0.05918,0.02953,0.02559*
1,1,0.05918,0.02953,-0.02559*
1,1,0.05918,-0.02953,-0.02559*
%
%ADD33ROUNDEDRECTD33*%
%ADD34R,0.08674X0.11824*%
%ADD35R,0.40800X0.15800*%
%ADD36R,0.05800X0.13320*%
G04:AMPARAMS|DCode=37|XSize=59.18mil|YSize=39.5mil|CornerRadius=7.94mil|HoleSize=0mil|Usage=FLASHONLY|Rotation=90.000|XOffset=0mil|YOffset=0mil|HoleType=Round|Shape=RoundedRectangle|*
%AMROUNDEDRECTD37*
21,1,0.05918,0.02362,0,0,90.0*
21,1,0.04331,0.03950,0,0,90.0*
1,1,0.01587,0.01181,0.02165*
1,1,0.01587,0.01181,-0.02165*
1,1,0.01587,-0.01181,-0.02165*
1,1,0.01587,-0.01181,0.02165*
%
%ADD37ROUNDEDRECTD37*%
%ADD38R,0.03950X0.06706*%
%ADD39R,0.03359X0.05524*%
%ADD40R,0.03300X0.05800*%
G04:AMPARAMS|DCode=41|XSize=47.37mil|YSize=43.43mil|CornerRadius=8.43mil|HoleSize=0mil|Usage=FLASHONLY|Rotation=90.000|XOffset=0mil|YOffset=0mil|HoleType=Round|Shape=RoundedRectangle|*
%AMROUNDEDRECTD41*
21,1,0.04737,0.02657,0,0,90.0*
21,1,0.03051,0.04343,0,0,90.0*
1,1,0.01686,0.01329,0.01526*
1,1,0.01686,0.01329,-0.01526*
1,1,0.01686,-0.01329,-0.01526*
1,1,0.01686,-0.01329,0.01526*
%
%ADD41ROUNDEDRECTD41*%
%ADD42R,0.03753X0.04540*%
%ADD43R,0.07493X0.10642*%
%ADD44C,0.07493*%
%ADD45C,0.02200*%
%ADD46C,0.21666*%
%ADD47C,0.06800*%
%ADD48C,0.10800*%
D30*
X200347Y117323D02*
D03*
X182677Y153150D02*
D03*
D31*
X220079Y135433D02*
D03*
Y128347D02*
D03*
X212205D02*
D03*
Y135433D02*
D03*
D32*
X120669Y121260D02*
D03*
X128150Y150394D02*
D03*
D33*
X157677Y121653D02*
D03*
D34*
X109646Y121260D02*
D03*
D35*
X265748Y152575D02*
D03*
D36*
X264843Y133858D02*
D03*
X254842D02*
D03*
D37*
X203150Y145276D02*
D03*
X195276D02*
D03*
X203150Y137402D02*
D03*
X195276D02*
D03*
X204724Y127953D02*
D03*
X196850D02*
D03*
D38*
X230768Y141339D02*
D03*
Y153937D02*
D03*
X237736D02*
D03*
Y141339D02*
D03*
D39*
X212402Y143307D02*
D03*
X219882D02*
D03*
X216142Y153543D02*
D03*
D40*
X198725Y117323D02*
D03*
X201969D02*
D03*
X181055Y153150D02*
D03*
X184299D02*
D03*
D41*
X198346Y153000D02*
D03*
X191654D02*
D03*
X179331Y137008D02*
D03*
X172638D02*
D03*
D42*
X185433Y144095D02*
D03*
X179921D02*
D03*
D43*
X174016Y117323D02*
D03*
X189764D02*
D03*
D44*
X152559Y135827D02*
D03*
X125000D02*
D03*
D45*
X147545Y100486D02*
D03*
X149953Y106299D02*
D03*
X147545Y112112D02*
D03*
X141732Y114520D02*
D03*
D03*
X135919Y112112D02*
D03*
X133512Y106299D02*
D03*
X135919Y100486D02*
D03*
X141732Y98079D02*
D03*
X242033Y116234D02*
D03*
X244441Y122047D02*
D03*
X242033Y127860D02*
D03*
X236221Y130268D02*
D03*
D03*
X230408Y127860D02*
D03*
X228000Y122047D02*
D03*
X230408Y116234D02*
D03*
X236221Y113827D02*
D03*
X141732Y157134D02*
D03*
X135919Y159541D02*
D03*
X133512Y165354D02*
D03*
X135919Y171167D02*
D03*
X141732Y173575D02*
D03*
D03*
X147545Y171167D02*
D03*
X149953Y165354D02*
D03*
X147545Y159541D02*
D03*
D46*
X141732Y106299D02*
D03*
X236221Y122047D02*
D03*
X141732Y165354D02*
D03*
D47*
X254724Y126772D02*
D03*
X264961D02*
D03*
X274803Y153150D02*
D03*
X256299D02*
D03*
D48*
X279528Y138583D02*
D03*
M02*
