G04*
G04 #@! TF.GenerationSoftware,Altium Limited,Altium Designer,20.1.14 (287)*
G04*
G04 Layer_Color=65535*
%FSLAX23Y23*%
%MOIN*%
G70*
G04*
G04 #@! TF.SameCoordinates,798D76CE-EDA4-480F-9F1B-0691B6F15CDE*
G04*
G04*
G04 #@! TF.FilePolarity,Positive*
G04*
G01*
G75*
%ADD10C,0.024*%
%ADD11C,0.010*%
%ADD12C,0.004*%
%ADD13C,0.008*%
%ADD14C,0.010*%
D10*
X1943Y4709D02*
G03*
X1943Y4709I-12J0D01*
G01*
D11*
X1849Y4759D02*
G03*
X1849Y4759I-5J0D01*
G01*
D12*
X1595Y4647D02*
X1595Y4773D01*
X1665Y4647D02*
X1665Y4773D01*
X1595Y4647D02*
X1665Y4647D01*
X1595Y4773D02*
X1665Y4773D01*
X1680Y4647D02*
X1680Y4773D01*
X1750Y4647D02*
X1750Y4773D01*
X1680Y4647D02*
X1750Y4647D01*
X1680Y4773D02*
X1750Y4773D01*
X1266Y4552D02*
X1266Y4608D01*
X1384Y4552D02*
X1384Y4608D01*
X1266Y4608D02*
X1384Y4608D01*
X1266Y4552D02*
X1384Y4552D01*
X1759Y4587D02*
X1759Y4643D01*
X1641Y4587D02*
X1641Y4643D01*
X1641Y4587D02*
X1759Y4587D01*
X1641Y4643D02*
X1759Y4643D01*
D13*
X1892Y4552D02*
X2018Y4552D01*
X1892Y4748D02*
X2018Y4748D01*
X2018Y4552D02*
X2018Y4748D01*
X1892Y4552D02*
X1892Y4748D01*
D14*
X1240Y4835D02*
X1280Y4835D01*
X1260Y4835D01*
X1260Y4775D01*
X1300Y4775D02*
X1300Y4835D01*
X1330Y4835D01*
X1340Y4825D01*
X1340Y4805D01*
X1330Y4795D01*
X1300Y4795D01*
X1400Y4775D02*
X1360Y4775D01*
X1400Y4815D01*
X1400Y4825D01*
X1390Y4835D01*
X1370Y4835D01*
X1360Y4825D01*
X1430Y4830D02*
X1470Y4830D01*
X1450Y4830D01*
X1450Y4770D01*
X1490Y4770D02*
X1490Y4830D01*
X1520Y4830D01*
X1530Y4820D01*
X1530Y4800D01*
X1520Y4790D01*
X1490Y4790D01*
X1550Y4770D02*
X1570Y4770D01*
X1560Y4770D01*
X1560Y4830D01*
X1550Y4820D01*
X1650Y4495D02*
X1650Y4555D01*
X1680Y4555D01*
X1690Y4545D01*
X1690Y4525D01*
X1680Y4515D01*
X1650Y4515D01*
X1670Y4515D02*
X1690Y4495D01*
X1750Y4495D02*
X1710Y4495D01*
X1750Y4535D01*
X1750Y4545D01*
X1740Y4555D01*
X1720Y4555D01*
X1710Y4545D01*
X1290Y4470D02*
X1290Y4530D01*
X1320Y4530D01*
X1330Y4520D01*
X1330Y4500D01*
X1320Y4490D01*
X1290Y4490D01*
X1310Y4490D02*
X1330Y4470D01*
X1350Y4470D02*
X1370Y4470D01*
X1360Y4470D01*
X1360Y4530D01*
X1350Y4520D01*
X1955Y4795D02*
X1955Y4835D01*
X1945Y4845D01*
X1925Y4845D01*
X1915Y4835D01*
X1915Y4795D01*
X1925Y4785D01*
X1945Y4785D01*
X1935Y4805D02*
X1955Y4785D01*
X1945Y4785D02*
X1955Y4795D01*
X1975Y4785D02*
X1995Y4785D01*
X1985Y4785D01*
X1985Y4845D01*
X1975Y4835D01*
X1660Y4850D02*
X1670Y4860D01*
X1670Y4880D01*
X1660Y4890D01*
X1620Y4890D01*
X1610Y4880D01*
X1610Y4860D01*
X1620Y4850D01*
X1610Y4790D02*
X1610Y4830D01*
X1650Y4790D01*
X1660Y4790D01*
X1670Y4800D01*
X1670Y4820D01*
X1660Y4830D01*
X4555Y9765D02*
X4565Y9775D01*
X4565Y9795D01*
X4555Y9805D01*
X4515Y9805D01*
X4505Y9795D01*
X4505Y9775D01*
X4515Y9765D01*
X4505Y9745D02*
X4505Y9725D01*
X4505Y9735D01*
X4565Y9735D01*
X4555Y9745D01*
M02*
