G04*
G04 #@! TF.GenerationSoftware,Altium Limited,Altium Designer,21.9.2 (33)*
G04*
G04 Layer_Physical_Order=2*
G04 Layer_Color=16711680*
%FSLAX25Y25*%
%MOIN*%
G70*
G04*
G04 #@! TF.SameCoordinates,76B3E711-7253-4C38-AAFD-F3EBF6C4A3F6*
G04*
G04*
G04 #@! TF.FilePolarity,Positive*
G04*
G01*
G75*
%ADD27C,0.06693*%
%ADD28C,0.01400*%
%ADD29C,0.20866*%
%ADD30C,0.06000*%
%ADD31C,0.10000*%
%ADD32C,0.03300*%
G36*
X221982Y154422D02*
X223415Y153828D01*
X224704Y152966D01*
X225801Y151870D01*
X226663Y150580D01*
X227256Y149147D01*
X227559Y147626D01*
Y146850D01*
Y138740D01*
Y137755D01*
X227175Y135823D01*
X226421Y134003D01*
X225327Y132366D01*
X223934Y130973D01*
X222296Y129878D01*
X220476Y129124D01*
X218544Y128740D01*
X137953D01*
X136973Y128692D01*
X135050Y128310D01*
X133239Y127559D01*
X131609Y126470D01*
X130223Y125084D01*
X129133Y123454D01*
X128383Y121643D01*
X128001Y119720D01*
X127953Y118740D01*
Y107764D01*
X127756Y106775D01*
X127370Y105843D01*
X126810Y105005D01*
X126097Y104292D01*
X125259Y103732D01*
X124328Y103346D01*
X123339Y103150D01*
X105950D01*
X105266Y103286D01*
X104621Y103553D01*
X104041Y103941D01*
X103547Y104434D01*
X103159Y105015D01*
X102892Y105659D01*
X102756Y106344D01*
Y106693D01*
Y150787D01*
Y151175D01*
X102907Y151936D01*
X103204Y152652D01*
X103635Y153297D01*
X104128Y153790D01*
X104183Y153846D01*
X104828Y154276D01*
X104828Y154276D01*
X105109Y154393D01*
X105383Y154506D01*
X105383Y154506D01*
X106693Y154724D01*
X106776Y154724D01*
X138744D01*
X139149Y154593D01*
X140864Y154321D01*
X142601D01*
X144316Y154593D01*
X144720Y154724D01*
X220461D01*
X221982Y154422D01*
D02*
G37*
%LPC*%
G36*
X153079Y139773D02*
X152040D01*
X151036Y139504D01*
X150136Y138985D01*
X149401Y138250D01*
X148882Y137350D01*
X148613Y136346D01*
Y135307D01*
X148882Y134303D01*
X149401Y133404D01*
X150136Y132669D01*
X151036Y132149D01*
X152040Y131880D01*
X153079D01*
X154082Y132149D01*
X154982Y132669D01*
X155717Y133404D01*
X156237Y134303D01*
X156506Y135307D01*
Y136346D01*
X156237Y137350D01*
X155717Y138250D01*
X154982Y138985D01*
X154082Y139504D01*
X153079Y139773D01*
D02*
G37*
G36*
X125520D02*
X124480D01*
X123477Y139504D01*
X122577Y138985D01*
X121842Y138250D01*
X121323Y137350D01*
X121054Y136346D01*
Y135307D01*
X121323Y134303D01*
X121842Y133404D01*
X122577Y132669D01*
X123477Y132149D01*
X124480Y131880D01*
X125520D01*
X126523Y132149D01*
X127423Y132669D01*
X128158Y133404D01*
X128677Y134303D01*
X128946Y135307D01*
Y136346D01*
X128677Y137350D01*
X128158Y138250D01*
X127423Y138985D01*
X126523Y139504D01*
X125520Y139773D01*
D02*
G37*
%LPD*%
D27*
X152559Y135827D02*
D03*
X125000D02*
D03*
D28*
X147545Y100486D02*
D03*
X149953Y106299D02*
D03*
X147545Y112112D02*
D03*
X141732Y114520D02*
D03*
D03*
X135919Y112112D02*
D03*
X133512Y106299D02*
D03*
X135919Y100486D02*
D03*
X141732Y98079D02*
D03*
X242033Y116234D02*
D03*
X244441Y122047D02*
D03*
X242033Y127860D02*
D03*
X236221Y130268D02*
D03*
D03*
X230408Y127860D02*
D03*
X228000Y122047D02*
D03*
X230408Y116234D02*
D03*
X236221Y113827D02*
D03*
X141732Y157134D02*
D03*
X135919Y159541D02*
D03*
X133512Y165354D02*
D03*
X135919Y171167D02*
D03*
X141732Y173575D02*
D03*
D03*
X147545Y171167D02*
D03*
X149953Y165354D02*
D03*
X147545Y159541D02*
D03*
D29*
X141732Y106299D02*
D03*
X236221Y122047D02*
D03*
X141732Y165354D02*
D03*
D30*
X254724Y126772D02*
D03*
X264961D02*
D03*
X274803Y153150D02*
D03*
X256299D02*
D03*
X109843Y132283D02*
D03*
X110630Y111024D02*
D03*
D31*
X279528Y138583D02*
D03*
D32*
X207087Y135433D02*
D03*
Y148425D02*
D03*
X223622Y144095D02*
D03*
X207087Y141339D02*
D03*
M02*
